<?xml version="1.0" encoding="UTF-8"?>
<svg width="75px" height="34px" viewBox="0 0 75 34" version="1.1" xmlns="http://www.w3.org/2000/svg" xmlns:xlink="http://www.w3.org/1999/xlink">
    <!-- Generator: Sketch 52.5 (67469) - http://www.bohemiancoding.com/sketch -->
    <title>logo</title>
    <desc>Created with Sketch.</desc>
    <g id="Welcome" stroke="none" stroke-width="1" fill="none" fill-rule="evenodd">
        <g id="Desktop-HD" transform="translate(-33.000000, -21.000000)">
            <g id="logo" transform="translate(28.000000, 11.000000)">
                <path d="M5,12 C5,13.35 5,27 5,33 C5,39 9.68789574,44 20,44 C30.3121043,44 35,39 35,33.0525351 C35,27.1050701 35,13.35 35,12 C35,10.65 34.35,10 33,10 C31.65,10 28.35,10 27,10 C25.65,10 25,10.65 25,12 C25,13.35 25,31.65 25,34 C25,36.35 23,38 20,38 C17,38 15,36.35 15,34 C15,31.65 15,13.35 15,12 C15,10.65 14.35,10 13,10 C11.65,10 8.35,10 7,10 C5.65,10 5,10.65 5,12 Z" id="Path" fill="#243147" fill-rule="nonzero"></path>
                <path d="M41,12 C41,13.35 41,39.65 41,41 C41,42.35 41.65,43 43,43 C44.35,43 47.6577087,43 49.0038544,43 C50.35,43 51,42.35 51,41 C51,39.65 51,13.35 51,12 C51,10.65 50.35,10 49.0038544,10 C47.6577087,10 44.3482607,10 43,10 C41.6517393,10 41,10.65 41,12 Z" id="Path-2" fill="#243147" fill-rule="nonzero"></path>
                <path d="M67.5176515,42 C67.5176515,42 60.895612,37.6763424 57.9029845,32.690617 C56.9359882,31.0801828 56,29.5979813 56,27.5147525 C56,23.9189214 58.6503308,21.0020606 61.9199672,21.0020606 C64.3385337,21.0020606 66.0689993,22.5975034 66.9924311,24.8803679 L66.9924311,24.8686914 C67.0617865,25.1055366 67.2628375,25.2796094 67.5000842,25.2796094 C67.7383331,25.2796094 67.937822,25.1055366 68.0055562,24.8686914 C68.935502,22.5909335 70.6653781,21 73.0780201,21 C76.3491303,21 78.9999916,23.9168608 78.9999916,27.5125426 C79.0029981,29.5962492 78.1961411,31.0588604 77.1925366,32.6447471 C74.1289915,37.6815983 67.5176515,42 67.5176515,42 Z" id="Path" stroke="#FF143B" stroke-width="1" fill="#FF143B" fill-rule="evenodd" stroke-linecap="round" stroke-linejoin="round"></path>
            </g>
        </g>
    </g>
</svg>