<?xml version="1.0" encoding="UTF-8"?>
<svg width="74px" height="34px" viewBox="0 0 74 34" version="1.1" xmlns="http://www.w3.org/2000/svg" xmlns:xlink="http://www.w3.org/1999/xlink">
    <title>UI Love logo</title>
    <g id="logo" stroke="none" stroke-width="1" fill="none" fill-rule="evenodd">
        <path d="M0,2 C0,3.35 3.24171212e-16,17 0,23 C0,29 4.68789574,34 15,34 C25.3121043,34 30,29 30,23.0525351 C30,17.1050701 30,3.35 30,2 C30,0.65 29.35,0 28,0 C26.65,1.8737096e-16 23.35,0 22,0 C20.65,1.8737096e-16 20,0.65 20,2 C20,3.35 20,21.65 20,24 C20,26.35 18,28 15,28 C12,28 10,26.35 10,24 C10,21.65 10,3.35 10,2 C10,0.65 9.35,0 8,0 C6.65,1.8737096e-16 3.35,0 2,0 C0.65,1.8737096e-16 7.29385226e-17,0.65 0,2 Z" id="U" fill="#243147" fill-rule="nonzero"></path>
        <path d="M36,2 C36,3.35 36,29.65 36,31 C36,32.35 36.65,33 38,33 C39.35,33 42.6577087,33 44.0038544,33 C45.35,33 46,32.35 46,31 C46,29.65 46,3.35 46,2 C46,0.65 45.35,0 44.0038544,0 C42.6577087,5.27171807e-16 39.3482607,0 38,0 C36.6517393,0 36,0.65 36,2 Z" id="I" fill="#243147" fill-rule="nonzero"></path>
        <path d="M62.5176515,32 C62.535303,32 55.895612,27.6763424 52.9029845,22.690617 C51.9359882,21.0801828 51,19.5979813 51,17.5147525 C51,13.9189214 53.6503308,11.0020606 56.9199672,11.0020606 C59.3385337,11.0020606 61.0643524,12.5804526 61.9924311,14.87 C62.0891366,15.10857 62.2628375,15.2796094 62.5000842,15.2796094 C62.7383331,15.2796094 62.937822,15.1055366 63.0055562,14.8686914 C63.935502,12.5909335 65.6653781,11 68.0780201,11 C71.3491303,11 73.9999916,13.9168608 73.9999916,17.5125426 C74.0029981,19.5962492 73.1961411,21.0588604 72.1925366,22.6447471 C69.1289915,27.6815983 62.5,32 62.5176515,32 Z" id="Love" fill="#D5001A"></path>
    </g>
</svg>
